<svg width="1205" height="96" viewBox="0 0 1205 96" fill="none" xmlns="http://www.w3.org/2000/svg">
<path d="M0.045455 94.5V1.40909H38.8636C45.8333 1.40909 51.6667 2.39394 56.3636 4.36363C61.0909 6.33333 64.6364 9.0909 67 12.6364C69.3939 16.1818 70.5909 20.2879 70.5909 24.9545C70.5909 28.5 69.8485 31.6667 68.3636 34.4545C66.8788 37.2121 64.8333 39.5 62.2273 41.3182C59.6212 43.1364 56.6061 44.4091 53.1818 45.1364V46.0455C56.9394 46.2273 60.4091 47.2424 63.5909 49.0909C66.803 50.9394 69.3788 53.5152 71.3182 56.8182C73.2576 60.0909 74.2273 63.9697 74.2273 68.4545C74.2273 73.4545 72.9545 77.9242 70.4091 81.8636C67.8636 85.7727 64.1818 88.8636 59.3636 91.1364C54.5455 93.3788 48.697 94.5 41.8182 94.5H0.045455ZM22.5455 76.3636H36.4545C41.3333 76.3636 44.9242 75.4394 47.2273 73.5909C49.5606 71.7424 50.7273 69.1667 50.7273 65.8636C50.7273 63.4697 50.1667 61.4091 49.0455 59.6818C47.9242 57.9242 46.3333 56.5758 44.2727 55.6364C42.2121 54.6667 39.7424 54.1818 36.8636 54.1818H22.5455V76.3636ZM22.5455 39.6818H35C37.4545 39.6818 39.6364 39.2727 41.5455 38.4545C43.4545 37.6364 44.9394 36.4545 46 34.9091C47.0909 33.3636 47.6364 31.5 47.6364 29.3182C47.6364 26.197 46.5303 23.7424 44.3182 21.9545C42.1061 20.1667 39.1212 19.2727 35.3636 19.2727H22.5455V39.6818ZM141.909 94.5L112.636 55.8636H107.545V94.5H85.0455V1.40909H107.545V37.5455H111.136L139.955 1.40909H168.091L132.227 45.3636L169.955 94.5H141.909ZM189.943 95.7727V77.9545H194.716C197.292 77.9545 199.352 77.697 200.898 77.1818C202.473 76.6364 203.701 75.7727 204.58 74.5909C205.489 73.4091 206.246 71.8333 206.852 69.8636L207.898 67L173.534 1.40909H196.625L217.307 43.2273L233.943 1.40909H256.67L224.67 75.1818C223.004 78.8182 221.034 82.2121 218.761 85.3636C216.489 88.4848 213.625 91 210.17 92.9091C206.746 94.8182 202.428 95.7727 197.216 95.7727H189.943ZM344.545 35.1364H321.818C321.515 32.803 320.894 30.697 319.955 28.8182C319.015 26.9394 317.773 25.3333 316.227 24C314.682 22.6667 312.848 21.6515 310.727 20.9545C308.636 20.2273 306.318 19.8636 303.773 19.8636C299.258 19.8636 295.364 20.9697 292.091 23.1818C288.848 25.3939 286.348 28.5909 284.591 32.7727C282.864 36.9545 282 42.0151 282 47.9545C282 54.1364 282.879 59.3182 284.636 63.5C286.424 67.6515 288.924 70.7879 292.136 72.9091C295.379 75 299.212 76.0455 303.636 76.0455C306.121 76.0455 308.379 75.7273 310.409 75.0909C312.47 74.4545 314.273 73.5303 315.818 72.3182C317.394 71.0758 318.682 69.5758 319.682 67.8182C320.712 66.0303 321.424 64.0152 321.818 61.7727L344.545 61.9091C344.152 66.0303 342.955 70.0909 340.955 74.0909C338.985 78.0909 336.273 81.7424 332.818 85.0455C329.364 88.3182 325.152 90.9242 320.182 92.8636C315.242 94.803 309.576 95.7727 303.182 95.7727C294.758 95.7727 287.212 93.9242 280.545 90.2273C273.909 86.5 268.667 81.0758 264.818 73.9545C260.97 66.8333 259.045 58.1667 259.045 47.9545C259.045 37.7121 261 29.0303 264.909 21.9091C268.818 14.7879 274.106 9.37879 280.773 5.68182C287.439 1.98485 294.909 0.13636 303.182 0.13636C308.818 0.13636 314.03 0.92424 318.818 2.5C323.606 4.04545 327.818 6.31818 331.455 9.31818C335.091 12.2879 338.045 15.9394 340.318 20.2727C342.591 24.6061 344 29.5606 344.545 35.1364ZM357.42 94.5V1.40909H379.92V38.7727H416.602V1.40909H439.057V94.5H416.602V57.0909H379.92V94.5H357.42ZM541.034 47.9545C541.034 58.197 539.064 66.8788 535.125 74C531.186 81.1212 525.852 86.5303 519.125 90.2273C512.428 93.9242 504.913 95.7727 496.58 95.7727C488.216 95.7727 480.686 93.9091 473.989 90.1818C467.292 86.4545 461.973 81.0455 458.034 73.9545C454.125 66.8333 452.17 58.1667 452.17 47.9545C452.17 37.7121 454.125 29.0303 458.034 21.9091C461.973 14.7879 467.292 9.37879 473.989 5.68182C480.686 1.98485 488.216 0.13636 496.58 0.13636C504.913 0.13636 512.428 1.98485 519.125 5.68182C525.852 9.37879 531.186 14.7879 535.125 21.9091C539.064 29.0303 541.034 37.7121 541.034 47.9545ZM518.034 47.9545C518.034 41.8939 517.17 36.7727 515.443 32.5909C513.746 28.4091 511.292 25.2424 508.08 23.0909C504.898 20.9394 501.064 19.8636 496.58 19.8636C492.125 19.8636 488.292 20.9394 485.08 23.0909C481.867 25.2424 479.398 28.4091 477.67 32.5909C475.973 36.7727 475.125 41.8939 475.125 47.9545C475.125 54.0151 475.973 59.1364 477.67 63.3182C479.398 67.5 481.867 70.6667 485.08 72.8182C488.292 74.9697 492.125 76.0455 496.58 76.0455C501.064 76.0455 504.898 74.9697 508.08 72.8182C511.292 70.6667 513.746 67.5 515.443 63.3182C517.17 59.1364 518.034 54.0151 518.034 47.9545ZM581.67 1.40909H604.125V55.0455H604.898L641.534 1.40909H660.898V94.5H638.398V40.7727H637.807L600.716 94.5H581.67V1.40909ZM699.5 19.6818V1.40909H778.182V19.6818H749.955V94.5H727.773V19.6818H699.5ZM872.784 47.9545C872.784 58.197 870.814 66.8788 866.875 74C862.936 81.1212 857.602 86.5303 850.875 90.2273C844.178 93.9242 836.663 95.7727 828.33 95.7727C819.966 95.7727 812.436 93.9091 805.739 90.1818C799.042 86.4545 793.723 81.0455 789.784 73.9545C785.875 66.8333 783.92 58.1667 783.92 47.9545C783.92 37.7121 785.875 29.0303 789.784 21.9091C793.723 14.7879 799.042 9.37879 805.739 5.68182C812.436 1.98485 819.966 0.13636 828.33 0.13636C836.663 0.13636 844.178 1.98485 850.875 5.68182C857.602 9.37879 862.936 14.7879 866.875 21.9091C870.814 29.0303 872.784 37.7121 872.784 47.9545ZM849.784 47.9545C849.784 41.8939 848.92 36.7727 847.193 32.5909C845.496 28.4091 843.042 25.2424 839.83 23.0909C836.648 20.9394 832.814 19.8636 828.33 19.8636C823.875 19.8636 820.042 20.9394 816.83 23.0909C813.617 25.2424 811.148 28.4091 809.42 32.5909C807.723 36.7727 806.875 41.8939 806.875 47.9545C806.875 54.0151 807.723 59.1364 809.42 63.3182C811.148 67.5 813.617 70.6667 816.83 72.8182C820.042 74.9697 823.875 76.0455 828.33 76.0455C832.814 76.0455 836.648 74.9697 839.83 72.8182C843.042 70.6667 845.496 67.5 847.193 63.3182C848.92 59.1364 849.784 54.0151 849.784 47.9545ZM890.602 1.40909H912.375V31.0455C912.375 34.2879 912.936 36.9091 914.057 38.9091C915.208 40.9091 917.042 42.3788 919.557 43.3182C922.072 44.2273 925.39 44.6818 929.511 44.6818C930.633 44.6818 932.117 44.6515 933.966 44.5909C935.814 44.5 937.754 44.3788 939.784 44.2273C941.845 44.0758 943.754 43.8788 945.511 43.6364C947.299 43.3939 948.693 43.1212 949.693 42.8182V60.1364C948.633 60.4697 947.178 60.7727 945.33 61.0455C943.481 61.3182 941.511 61.5455 939.42 61.7273C937.33 61.9091 935.39 62.0455 933.602 62.1364C931.814 62.2273 930.451 62.2727 929.511 62.2727C921.693 62.2727 914.86 61.1667 909.011 58.9545C903.163 56.7121 898.633 53.2879 895.42 48.6818C892.208 44.0758 890.602 38.197 890.602 31.0455V1.40909ZM945.602 1.40909H967.511V94.5H945.602V1.40909ZM1042.78 94.5L1013.51 55.8636H1008.42V94.5H985.92V1.40909H1008.42V37.5455H1012.01L1040.83 1.40909H1068.97L1033.1 45.3636L1070.83 94.5H1042.78ZM1099.18 94.5H1075L1106.41 1.40909H1136.36L1167.77 94.5H1143.59L1121.73 24.8636H1121L1099.18 94.5ZM1095.95 57.8636H1146.5V74.9545H1095.95V57.8636ZM1203.93 1.40909L1201.84 66H1183.16L1181.07 1.40909H1203.93ZM1192.48 95.8182C1189.23 95.8182 1186.45 94.6667 1184.11 92.3636C1181.81 90.0606 1180.66 87.2727 1180.66 84C1180.66 80.7879 1181.81 78.0455 1184.11 75.7727C1186.45 73.4697 1189.23 72.3182 1192.48 72.3182C1195.6 72.3182 1198.34 73.4697 1200.7 75.7727C1203.1 78.0455 1204.3 80.7879 1204.3 84C1204.3 86.1818 1203.73 88.1667 1202.61 89.9545C1201.52 91.7424 1200.08 93.1667 1198.3 94.2273C1196.54 95.2879 1194.6 95.8182 1192.48 95.8182Z" fill="#212121"/>
</svg>
